HIERARCHY
ROOT Hips
{
 OFFSET 0.000000 0.000000 0.000000
 CHANNELS 6 Xposition Yposition Zposition Yrotation Xrotation Zrotation
 JOINT Chest
 {
  OFFSET 0.000000 10.080317 -0.001081
  CHANNELS 3 Yrotation Xrotation Zrotation
  JOINT Chest2
  {
   OFFSET 0.000000 11.096852 0.001963
   CHANNELS 3 Yrotation Xrotation Zrotation
   JOINT Chest3
   {
    OFFSET 0.000000 10.026525 0.000000
    CHANNELS 3 Yrotation Xrotation Zrotation
    JOINT Chest4
    {
     OFFSET 0.000000 10.026525 0.000000
     CHANNELS 3 Yrotation Xrotation Zrotation
     JOINT Neck
     {
      OFFSET 0.000000 14.108171 0.000000
      CHANNELS 3 Yrotation Xrotation Zrotation
      JOINT Head
      {
       OFFSET 0.000000 9.333493 0.004668
       CHANNELS 3 Yrotation Xrotation Zrotation
       End Site
       {
        OFFSET 0.000000 17.851786 0.002438
       }
      }
     }
     JOINT RightCollar
     {
      OFFSET -3.071622 7.873185 0.000000
      CHANNELS 3 Yrotation Xrotation Zrotation
      JOINT RightShoulder
      {
       OFFSET -14.378659 0.000000 0.000000
       CHANNELS 3 Yrotation Xrotation Zrotation
       JOINT RightElbow
       {
        OFFSET -30.778728 0.000000 0.000000
        CHANNELS 3 Yrotation Xrotation Zrotation
        JOINT RightWrist
        {
         OFFSET -25.164217 0.000000 0.000000
         CHANNELS 3 Yrotation Xrotation Zrotation
         End Site
         {
          OFFSET -18.796788 0.000000 0.000000
         }
        }
       }
      }
     }
     JOINT LeftCollar
     {
      OFFSET 3.071622 7.873185 0.000000
      CHANNELS 3 Yrotation Xrotation Zrotation
      JOINT LeftShoulder
      {
       OFFSET 14.378659 0.000000 0.000000
       CHANNELS 3 Yrotation Xrotation Zrotation
       JOINT LeftElbow
       {
        OFFSET 30.778728 0.000000 0.000000
        CHANNELS 3 Yrotation Xrotation Zrotation
        JOINT LeftWrist
        {
         OFFSET 25.164217 0.000000 0.000000
         CHANNELS 3 Yrotation Xrotation Zrotation
         End Site
         {
          OFFSET 18.796788 0.000000 0.000000
         }
        }
       }
      }
     }
    }
   }
  }
 }
 JOINT RightHip
 {
  OFFSET -8.194923 0.005295 0.000540
  CHANNELS 3 Yrotation Xrotation Zrotation
  JOINT RightKnee
  {
   OFFSET 0.000000 -42.473320 -0.000511
   CHANNELS 3 Yrotation Xrotation Zrotation
   JOINT RightAnkle
   {
    OFFSET 0.000000 -41.474259 -0.000865
    CHANNELS 3 Yrotation Xrotation Zrotation
    JOINT RightToe
    {
     OFFSET 0.000000 -7.354994 16.712725
     CHANNELS 3 Yrotation Xrotation Zrotation
     End Site
     {
      OFFSET 0.000000 -1.553903 6.764158
     }
    }
   }
  }
 }
 JOINT LeftHip
 {
  OFFSET 8.194923 0.005295 0.000540
  CHANNELS 3 Yrotation Xrotation Zrotation
  JOINT LeftKnee
  {
   OFFSET 0.000000 -42.473320 -0.000511
   CHANNELS 3 Yrotation Xrotation Zrotation
   JOINT LeftAnkle
   {
    OFFSET 0.000000 -41.474259 -0.000865
    CHANNELS 3 Yrotation Xrotation Zrotation
    JOINT LeftToe
    {
     OFFSET 0.000000 -7.354994 16.712725
     CHANNELS 3 Yrotation Xrotation Zrotation
     End Site
     {
      OFFSET 0.000000 -1.553903 6.764158
     }
    }
   }
  }
 }
}
MOTION
Frames: 15
Frame Time: 0.016667
0.000000 91.111157 0.000000 0.000000 -5.826342 0.000000 0.000000 11.116423 0.000000 0.000000 -5.290081 0.000000 0.000000 0.000000 0.000000 0.000000 0.000000 0.000000 0.000000 12.665069 0.000000 0.000000 0.575450 0.000000 0.000000 0.000000 0.000000 0.000000 0.000000 0.000000 2.337306 0.000000 0.000000 -2.337306 0.000000 0.000000 0.000000 0.000000 0.000000 0.000000 0.000000 0.000000 -2.337306 0.000000 0.000000 2.337306 0.000000 0.000000 0.000000 8.578828 0.000000 0.000000 1.905768 0.000000 0.000000 -4.658254 0.000000 0.000000 0.000000 0.000000 0.000000 8.578828 0.000000 0.000000 1.905768 0.000000 0.000000 -4.658254 0.000000 0.000000 0.000000 0.000000
-50.473548 92.963537 62.260985 -1.700874 -6.273385 0.240998 0.687561 2.825068 -0.235476 0.311614 1.254929 -0.148234 0.311614 1.254929 -0.148234 0.234006 0.941122 -0.111811 -0.730091 19.016382 0.868892 -1.615548 -0.852513 1.825368 -2.263282 0.311143 11.083295 -0.157878 -1.944643 71.148353 18.650319 17.375126 12.314402 -2.977029 2.819703 -7.507631 -5.151879 0.142840 -6.196799 -0.082930 -6.969460 -71.579846 -13.726122 20.929877 -16.408718 4.034304 1.629974 12.718238 -3.531240 8.220864 -0.541683 -9.479683 3.637176 -0.249315 -10.977372 -4.393963 1.280432 -0.030601 0.177851 0.013119 2.575681 9.823767 1.916703 -0.107328 3.276481 -0.451736 3.888430 -5.801088 -1.080620 0.015386 -0.152759 -0.036020
-50.449618 92.956632 62.283911 -1.673815 -6.282670 0.262522 0.694206 2.828645 -0.264645 0.312866 1.257133 -0.150602 0.312866 1.257133 -0.150602 0.234950 0.942773 -0.113591 -0.728329 19.006225 0.865529 -1.611433 -0.871484 1.818825 -2.279488 0.277674 11.070636 -0.161988 -1.909776 71.127443 18.568950 17.387798 12.262494 -2.979226 2.822153 -7.494258 -5.159738 0.112894 -6.176874 -0.089123 -6.975649 -71.557042 -13.678958 20.939219 -16.368895 4.056206 1.644181 12.720529 -3.526941 8.206784 -0.567679 -9.473310 3.704344 -0.274753 -11.032206 -4.443887 1.298947 -0.028171 0.164849 0.024330 2.601320 9.790980 1.889544 -0.147863 3.387686 -0.462954 3.885880 -5.878338 -1.054625 0.017723 -0.133651 -0.033649
-50.430363 92.951934 62.308073 -1.651712 -6.297336 0.252925 0.700687 2.827585 -0.275031 0.315143 1.257432 -0.153992 0.315143 1.257432 -0.153992 0.236665 0.942995 -0.116138 -0.728301 19.000488 0.872145 -1.613606 -0.881996 1.831037 -2.289720 0.276867 11.062943 -0.167114 -1.893407 71.119954 18.487113 17.400840 12.214093 -2.992644 2.831464 -7.489693 -5.203517 0.079624 -6.152654 -0.065403 -6.973812 -71.521587 -13.629684 20.938969 -16.336678 4.058574 1.626814 12.729233 -3.524815 8.217690 -0.557832 -9.436827 3.740343 -0.294279 -11.110184 -4.495702 1.293635 -0.025081 0.164614 0.045066 2.630969 9.759482 1.906396 -0.195114 3.504089 -0.496360 3.897503 -5.937716 -1.015197 0.015987 -0.134037 -0.036106
-50.411036 92.951591 62.332692 -1.622288 -6.321795 0.238797 0.704274 2.833313 -0.275581 0.316103 1.261196 -0.154397 0.316103 1.261196 -0.154397 0.237387 0.945817 -0.116446 -0.731105 18.996090 0.875481 -1.619892 -0.890031 1.838125 -2.302403 0.264023 11.049509 -0.173224 -1.862663 71.101857 18.407512 17.431103 12.142643 -2.996316 2.853969 -7.465115 -5.203077 0.046403 -6.152024 -0.061794 -6.981893 -71.475964 -13.591638 20.945576 -16.305803 4.069301 1.622528 12.737447 -3.493913 8.255271 -0.548423 -9.465119 3.746875 -0.299939 -11.142781 -4.524955 1.288883 -0.022059 0.156375 0.054680 2.598209 9.741493 1.913988 -0.191694 3.610615 -0.519124 3.906181 -5.982518 -0.981441 0.016585 -0.139458 -0.037907
-50.389792 92.952377 62.365445 -1.604370 -6.349535 0.229440 0.704539 2.838732 -0.279822 0.316523 1.263219 -0.154966 0.316523 1.263219 -0.154966 0.237703 0.947334 -0.116874 -0.729007 19.002413 0.882041 -1.618032 -0.878194 1.849357 -2.315802 0.260129 11.019231 -0.179978 -1.825141 71.085587 18.325403 17.464122 12.090824 -2.984950 2.848670 -7.444580 -5.203164 0.039405 -6.161237 -0.048070 -7.012067 -71.437002 -13.532803 20.941280 -16.265261 4.060951 1.603470 12.763800 -3.483912 8.322376 -0.544664 -9.466459 3.706339 -0.308764 -11.179746 -4.526514 1.294192 -0.021887 0.143425 0.055510 2.546732 9.746334 1.920319 -0.153842 3.697261 -0.555060 3.897211 -6.023400 -0.938483 0.017107 -0.145937 -0.040387
-50.367350 92.955421 62.396632 -1.586500 -6.375673 0.214544 0.709314 2.845408 -0.280502 0.319450 1.266897 -0.154464 0.319450 1.266897 -0.154464 0.239898 0.950092 -0.116506 -0.732816 19.014120 0.890988 -1.627652 -0.856178 1.866751 -2.341769 0.243867 10.986574 -0.179781 -1.788347 71.084306 18.238645 17.484662 12.016147 -2.981142 2.855258 -7.409151 -5.204129 0.007773 -6.160212 -0.036102 -7.026012 -71.418433 -13.468182 20.943671 -16.213128 4.061378 1.597478 12.780838 -3.486922 8.398599 -0.548093 -9.476876 3.646036 -0.297773 -11.202030 -4.514116 1.297872 -0.021468 0.129087 0.049494 2.513064 9.767934 1.928380 -0.158441 3.742551 -0.582897 3.915828 -6.041010 -0.891190 0.015384 -0.152175 -0.047321
-50.342384 92.956408 62.428786 -1.566200 -6.392714 0.205515 0.729432 2.848003 -0.283470 0.328541 1.267399 -0.155121 0.328541 1.267399 -0.155121 0.246717 0.950466 -0.117018 -0.742273 19.034926 0.904950 -1.649039 -0.817029 1.894968 -2.380418 0.236863 10.950293 -0.192969 -1.755422 71.062289 18.159027 17.504909 11.970936 -2.976255 2.858470 -7.378643 -5.228976 -0.023254 -6.164345 0.004604 -7.032776 -71.406274 -13.419800 20.969086 -16.161915 4.076194 1.563239 12.797589 -3.491337 8.464589 -0.571540 -9.471498 3.593499 -0.268891 -11.197281 -4.505510 1.298828 -0.018401 0.115212 0.042880 2.501860 9.805323 1.924039 -0.157844 3.739793 -0.587290 3.898699 -6.042426 -0.864239 0.012885 -0.151059 -0.043891
-50.312411 92.955981 62.461900 -1.555195 -6.392860 0.198625 0.733992 2.847529 -0.289516 0.330622 1.266397 -0.156835 0.330622 1.266397 -0.156835 0.248281 0.949713 -0.118307 -0.741425 19.054607 0.921656 -1.652444 -0.780134 1.924929 -2.394710 0.204373 10.910669 -0.204571 -1.703800 71.073548 18.079704 17.542584 11.903832 -2.979070 2.837401 -7.344365 -5.223383 -0.068496 -6.162585 0.043632 -7.039991 -71.384523 -13.391924 20.986719 -16.146207 4.077743 1.555330 12.811062 -3.493921 8.513154 -0.598811 -9.488338 3.542185 -0.238057 -11.178939 -4.506349 1.296458 -0.016757 0.110918 0.040587 2.468304 9.824614 1.901831 -0.173345 3.744789 -0.583652 3.940804 -6.051359 -0.849091 0.011231 -0.148124 -0.033640
-50.286790 92.955630 62.498309 -1.544811 -6.381798 0.196072 0.735415 2.848473 -0.301221 0.331359 1.265847 -0.161120 0.331359 1.265847 -0.161120 0.248843 0.949298 -0.121521 -0.745029 19.062988 0.939262 -1.664502 -0.764098 1.958164 -2.453117 0.167355 10.893196 -0.180763 -1.646930 71.067002 18.020706 17.575579 11.838928 -2.989449 2.856733 -7.287104 -5.215874 -0.124449 -6.141842 0.085109 -7.036247 -71.365992 -13.399670 21.027554 -16.174678 4.065665 1.532038 12.825252 -3.494601 8.543441 -0.622484 -9.461804 3.510194 -0.215562 -11.206136 -4.516067 1.292217 -0.012124 0.104154 0.045197 2.432488 9.821030 1.881913 -0.203344 3.778748 -0.594726 4.003939 -6.070888 -0.840280 0.010419 -0.149808 -0.017068
-50.268332 92.952492 62.529576 -1.540295 -6.358964 0.185517 0.740598 2.843062 -0.307518 0.333720 1.263447 -0.164227 0.333720 1.263447 -0.164227 0.250619 0.947496 -0.123855 -0.739845 19.064112 0.954615 -1.659887 -0.761787 1.984602 -2.499239 0.127563 10.864425 -0.177017 -1.605363 71.086654 17.947020 17.616360 11.768375 -2.982542 2.855341 -7.238045 -5.213423 -0.163393 -6.116662 0.116383 -7.037313 -71.350646 -13.432358 21.042813 -16.218795 4.059852 1.539714 12.821252 -3.472521 8.555521 -0.622393 -9.441310 3.482155 -0.204926 -11.244509 -4.530664 1.285614 -0.010679 0.104116 0.050344 2.398746 9.794075 1.879210 -0.232837 3.830669 -0.625494 4.092682 -6.097182 -0.816209 0.010451 -0.150559 -0.010950
-50.245002 92.948830 62.569760 -1.534968 -6.335049 0.179750 0.745281 2.849888 -0.314516 0.335926 1.265411 -0.166583 0.335926 1.265411 -0.166583 0.252279 0.948967 -0.125628 -0.736513 19.050402 0.961040 -1.656110 -0.787176 1.995561 -2.540871 0.088947 10.835675 -0.202463 -1.581580 71.096194 17.906700 17.640381 11.735391 -2.998279 2.853162 -7.212243 -5.222202 -0.201129 -6.097280 0.119375 -7.045636 -71.343742 -13.450353 21.052259 -16.242041 4.042871 1.525059 12.827732 -3.455520 8.558988 -0.628205 -9.421923 3.478062 -0.209781 -11.270632 -4.553742 1.303565 -0.009849 0.099660 0.048326 2.349191 9.741048 1.859764 -0.220544 3.947588 -0.646285 4.155768 -6.164399 -0.782507 0.006673 -0.149597 -0.015720
-50.216208 92.944783 62.603969 -1.527216 -6.310029 0.170909 0.743046 2.850428 -0.321651 0.336234 1.267456 -0.168978 0.336234 1.267456 -0.168978 0.252516 0.950499 -0.127426 -0.736106 19.032891 0.965063 -1.657002 -0.819610 2.003130 -2.567682 0.062786 10.801080 -0.224330 -1.553858 71.132416 17.858121 17.647041 11.688467 -3.001883 2.847217 -7.182955 -5.228201 -0.214555 -6.073768 0.108899 -7.057916 -71.338211 -13.468661 21.028161 -16.258407 4.051432 1.536174 12.825605 -3.419549 8.545683 -0.641809 -9.435570 3.502111 -0.195409 -11.313221 -4.592105 1.335274 -0.010380 0.098878 0.032251 2.302748 9.666987 1.844947 -0.232865 4.095497 -0.674679 4.237115 -6.245305 -0.744196 0.004446 -0.148668 -0.020049
-50.185411 92.940249 62.647318 -1.522713 -6.297910 0.154921 0.751790 2.856275 -0.323581 0.340726 1.270190 -0.169129 0.340726 1.270190 -0.169129 0.255885 0.952549 -0.127550 -0.743657 19.010841 0.966939 -1.671873 -0.860333 2.009397 -2.602245 0.057906 10.759716 -0.230366 -1.523517 71.177542 17.823824 17.635595 11.640754 -3.017003 2.859450 -7.142905 -5.243073 -0.219340 -6.062506 0.086886 -7.067472 -71.348689 -13.454066 21.010769 -16.246804 4.042173 1.540281 12.841870 -3.364298 8.554747 -0.648578 -9.471847 3.521215 -0.187799 -11.342330 -4.627931 1.381793 -0.010133 0.093555 0.015491 2.271350 9.599303 1.855264 -0.232201 4.271855 -0.729457 4.278130 -6.356465 -0.692761 0.000474 -0.144195 -0.024168
-50.148669 92.932306 62.688731 -1.523228 -6.286668 0.135723 0.751620 2.863780 -0.320609 0.341434 1.274461 -0.166903 0.341434 1.274461 -0.166903 0.256413 0.955753 -0.125885 -0.749399 18.986291 0.961977 -1.681296 -0.905897 2.002614 -2.619299 0.043870 10.708982 -0.212041 -1.481142 71.224532 17.781919 17.625832 11.606602 -3.028155 2.857674 -7.117466 -5.269246 -0.235677 -6.061872 0.059589 -7.068949 -71.354001 -13.427698 20.985507 -16.228849 4.038487 1.538601 12.836632 -3.312442 8.550742 -0.648241 -9.516243 3.562156 -0.197229 -11.337872 -4.678666 1.440768 -0.006649 0.094550 -0.000306 2.221320 9.528971 1.865260 -0.246162 4.453727 -0.796366 4.354291 -6.480247 -0.629240 -0.006203 -0.133655 -0.030282
